<svg width="667" height="486" viewBox="0 0 667 486" fill="none" xmlns="http://www.w3.org/2000/svg">
<path d="M370.695 387.031C373.727 388.356 381.143 388.189 381.148 388.189C381.225 388.187 379.555 383.333 379.415 383.039C377.788 379.635 372.64 374.015 368.455 374.58C365.437 374.988 363.76 378.007 364.441 380.847C365.137 383.748 368.112 385.903 370.695 387.031Z" fill="#172C3A"/>
<path d="M371.337 410.483C374.484 410.941 381.103 409.022 381.628 408.867C382.673 412.572 384.047 416.29 385.643 419.975C386.553 422.083 387.536 424.177 388.548 426.266C387.944 425.38 387.397 424.595 387.309 424.492C384.839 421.639 378.392 417.577 374.504 419.229C371.701 420.418 370.883 423.771 372.288 426.331C373.724 428.946 377.165 430.239 379.952 430.646C382.783 431.058 388.457 429.535 389.955 429.111C390.352 429.908 390.739 430.708 391.139 431.503C393.056 435.32 394.984 439.119 396.763 442.904C397.389 444.237 397.957 445.575 398.532 446.91C397.995 446.124 397.536 445.468 397.455 445.375C394.987 442.522 388.54 438.459 384.651 440.111C381.848 441.301 381.028 444.656 382.435 447.213C383.872 449.829 387.311 451.122 390.1 451.529C392.8 451.922 398.052 450.562 399.833 450.068C400.379 451.453 400.929 452.839 401.395 454.207C401.693 455.147 402.047 456.031 402.291 456.992C402.557 457.938 402.817 458.877 403.076 459.805C403.509 461.608 403.967 463.47 404.345 465.241C404.617 466.471 404.855 467.648 405.097 468.834C404.488 467.499 403.24 464.911 403.112 464.707C401.105 461.512 395.347 456.52 391.252 457.563C388.303 458.317 386.984 461.507 387.987 464.25C389.011 467.05 392.215 468.85 394.909 469.674C397.877 470.58 404.445 469.753 405.267 469.643C405.66 471.606 406.024 473.519 406.337 475.329C407.043 479.325 407.575 482.907 407.979 485.938H410.748C410.265 482.801 409.633 479.065 408.799 474.87C408.407 472.875 407.948 470.751 407.457 468.575C407.951 468.379 410.753 467.246 413.236 465.858C415.397 468.201 420.94 470.941 421.657 471.289C420.903 473.144 420.152 474.939 419.415 476.623C417.883 480.151 416.428 483.277 415.143 485.938H418.137C419.241 483.486 420.456 480.692 421.723 477.599C422.496 475.718 423.284 473.694 424.075 471.607C424.871 471.774 431.373 473.095 434.404 472.411C437.152 471.789 440.483 470.234 441.713 467.517C442.917 464.856 441.839 461.575 438.952 460.606C434.948 459.26 428.835 463.81 426.595 466.846C426.461 467.024 425.245 469.129 424.5 470.467C424.819 469.613 425.137 468.787 425.453 467.904C426.095 466.162 426.68 464.404 427.317 462.517C427.595 461.594 427.873 460.66 428.155 459.719C428.453 458.791 428.652 457.774 428.907 456.792C429.452 454.506 429.892 452.162 430.283 449.791C431.811 450.346 437.263 452.243 440.087 452.044C442.897 451.846 446.423 450.815 448.051 448.315C449.645 445.868 449.076 442.46 446.371 441.065C442.615 439.129 435.884 442.699 433.209 445.36C433.043 445.525 431.337 447.653 430.425 448.836C430.649 447.41 430.88 445.987 431.059 444.535C431.58 440.346 431.975 436.09 432.389 431.844C432.515 430.544 432.657 429.25 432.792 427.954C433.335 428.159 439.765 430.551 442.928 430.33C445.739 430.132 449.265 429.101 450.892 426.601C452.487 424.154 451.917 420.746 449.213 419.351C445.457 417.415 438.724 420.986 436.052 423.647C435.849 423.846 433.401 426.908 432.817 427.718C433.119 424.863 433.445 422.022 433.883 419.234C434.479 415.386 435.277 411.644 436.317 408.077C436.568 408.171 443.271 410.701 446.508 410.474C449.321 410.275 452.847 409.243 454.475 406.743C456.068 404.295 455.5 400.889 452.793 399.494C449.039 397.556 442.307 401.127 439.632 403.789C439.424 403.998 436.791 407.294 436.356 407.926C436.419 407.713 436.46 407.487 436.525 407.275C437.685 403.48 439.285 399.948 440.945 396.717C441.907 394.836 442.931 393.094 443.964 391.419C445.164 392.018 450.676 394.695 453.613 394.812C456.431 394.926 460.049 394.286 461.941 391.98C463.793 389.722 463.604 386.274 461.067 384.591C457.547 382.254 450.464 385.062 447.513 387.413C447.353 387.543 445.867 389.023 444.799 390.117C445.277 389.368 445.756 388.587 446.228 387.88C447.996 385.217 449.779 382.888 451.375 380.839C452.291 379.682 453.141 378.652 453.949 377.698C455.433 377.671 461.412 377.491 464.025 376.263C466.576 375.064 469.493 372.83 470.111 369.912C470.715 367.054 468.955 364.082 465.929 363.756C461.728 363.304 456.736 369.06 455.201 372.507C455.069 372.807 453.529 377.703 453.608 377.703C453.608 377.703 453.679 377.702 453.697 377.702C452.901 378.603 452.059 379.58 451.161 380.667C449.517 382.686 447.679 384.982 445.848 387.615C444.009 390.243 442.088 393.15 440.337 396.393C438.58 399.642 436.897 403.15 435.632 406.989C435.616 407.031 435.608 407.078 435.593 407.122C435.615 405.883 435.56 402.422 435.525 402.156C435.041 398.415 431.905 391.47 427.749 390.701C424.756 390.148 422.223 392.492 421.983 395.403C421.74 398.378 423.895 401.351 425.997 403.23C428.367 405.347 434.945 407.396 435.471 407.559C434.297 411.224 433.392 415.083 432.691 419.036C432.287 421.298 431.951 423.587 431.644 425.886C431.628 424.815 431.607 423.858 431.588 423.724C431.104 419.983 427.967 413.039 423.812 412.27C420.819 411.715 418.283 414.062 418.045 416.972C417.801 419.946 419.957 422.92 422.059 424.798C424.192 426.703 429.765 428.565 431.247 429.036C431.139 429.92 431.02 430.801 430.915 431.684C430.407 435.926 429.921 440.159 429.315 444.296C429.104 445.755 428.84 447.183 428.581 448.612C428.567 447.662 428.547 446.862 428.531 446.741C428.045 442.998 424.909 436.053 420.756 435.284C417.761 434.732 415.225 437.077 414.988 439.99C414.744 442.96 416.9 445.936 419.001 447.813C421.036 449.631 426.167 451.395 427.924 451.966C427.616 453.422 427.309 454.88 426.945 456.279C426.675 457.227 426.48 458.159 426.156 459.098C425.853 460.032 425.556 460.958 425.26 461.875C424.624 463.619 423.98 465.423 423.319 467.11C422.868 468.286 422.415 469.399 421.963 470.52C422.191 469.071 422.58 466.224 422.585 465.984C422.643 463.479 421.753 459.403 419.981 456.539C419.992 456.168 419.971 455.801 419.912 455.434C419.448 452.55 416.74 450.408 413.797 451.191C409.716 452.278 407.125 459.444 406.933 463.213C406.921 463.436 407.065 465.86 407.183 467.39C406.977 466.501 406.788 465.636 406.565 464.724C406.137 462.92 405.657 461.131 405.148 459.203C404.869 458.28 404.587 457.35 404.301 456.408C404.04 455.47 403.644 454.512 403.316 453.553C402.508 451.344 401.583 449.147 400.601 446.953C402.181 446.574 407.775 445.148 410.019 443.426C412.256 441.71 414.625 438.901 414.605 435.92C414.584 432.999 412.231 430.472 409.205 430.801C405.004 431.258 401.359 437.948 400.596 441.644C400.549 441.875 400.3 444.587 400.192 446.08C399.592 444.767 399 443.451 398.348 442.142C396.471 438.36 394.453 434.593 392.456 430.824C391.844 429.668 391.248 428.512 390.647 427.356C391.212 427.227 397.895 425.675 400.411 423.746C402.647 422.031 405.017 419.223 404.997 416.241C404.976 413.322 402.623 410.792 399.597 411.122C395.395 411.579 391.751 418.27 390.988 421.966C390.931 422.243 390.579 426.148 390.537 427.144C389.215 424.599 387.92 422.047 386.744 419.482C385.12 415.943 383.721 412.382 382.62 408.831C382.884 408.771 389.867 407.184 392.444 405.208C394.679 403.492 397.051 400.686 397.029 397.703C397.008 394.782 394.656 392.256 391.628 392.584C387.428 393.041 383.783 399.732 383.02 403.427C382.96 403.717 382.584 407.918 382.569 408.683C382.504 408.472 382.415 408.262 382.352 408.05C381.225 404.244 380.612 400.417 380.215 396.805C379.979 394.706 379.871 392.687 379.811 390.72C381.141 390.558 387.216 389.75 389.731 388.226C392.143 386.767 394.807 384.238 395.112 381.271C395.413 378.367 393.351 375.595 390.308 375.59C386.083 375.582 381.724 381.832 380.56 385.422C380.497 385.617 380.073 387.671 379.787 389.172C379.773 388.286 379.741 387.37 379.745 386.518C379.752 383.324 379.952 380.398 380.153 377.808C380.279 376.336 380.421 375.008 380.568 373.768C381.791 372.927 386.677 369.478 388.18 367.011C389.648 364.604 390.847 361.132 389.752 358.359C388.68 355.642 385.573 354.134 382.869 355.53C379.115 357.471 378.128 365.027 378.749 368.748C378.804 369.068 380.221 374.002 380.285 373.96C380.285 373.96 380.345 373.919 380.359 373.908C380.193 375.1 380.031 376.38 379.881 377.782C379.623 380.372 379.357 383.3 379.281 386.508C379.199 389.713 379.199 393.199 379.529 396.87C379.856 400.547 380.388 404.401 381.448 408.303C381.46 408.346 381.479 408.391 381.492 408.435C380.827 407.39 378.869 404.534 378.695 404.33C376.225 401.477 369.779 397.415 365.891 399.066C363.088 400.256 362.268 403.61 363.673 406.17C365.112 408.783 368.551 410.077 371.337 410.483Z" fill="#172C3A"/>
<path d="M445.709 388.662C445.775 388.702 447.059 383.733 447.103 383.41C447.624 379.674 446.432 372.146 442.628 370.309C439.887 368.985 436.823 370.577 435.824 373.322C434.804 376.125 436.097 379.564 437.629 381.929C439.425 384.707 445.704 388.659 445.709 388.662Z" fill="#172C3A"/>
<path d="M14.4694 467.636C14.4694 467.636 25.1414 413.56 25.1414 409.292C25.1414 405.023 24.4307 389.368 20.8721 370.156C17.3147 350.945 6.64139 303.272 3.79606 295.445C0.949389 287.619 11.6227 273.388 14.4694 257.023C17.3147 240.657 23.7187 225.004 32.2574 215.041C40.796 205.08 71.3907 183.023 71.3907 183.023H87.0454C87.0454 183.023 81.3534 276.945 89.18 291.176C97.0067 305.407 111.237 335.292 112.661 348.099C114.084 360.907 105.545 382.252 106.968 394.35C108.391 406.445 96.2947 426.368 93.4494 434.907C90.6027 443.445 92.0267 470.483 92.0267 470.483" fill="white"/>
<path d="M14.4694 467.636C14.4694 467.636 25.1414 413.56 25.1414 409.292C25.1414 405.023 24.4307 389.368 20.8721 370.156C17.3147 350.945 6.64139 303.272 3.79606 295.445C0.949389 287.619 11.6227 273.388 14.4694 257.023C17.3147 240.657 23.7187 225.004 32.2574 215.041C40.796 205.08 71.3907 183.023 71.3907 183.023H87.0454C87.0454 183.023 81.3534 276.945 89.18 291.176C97.0067 305.407 111.237 335.292 112.661 348.099C114.084 360.907 105.545 382.252 106.968 394.35C108.391 406.445 96.2947 426.368 93.4494 434.907C90.6027 443.445 92.0267 470.483 92.0267 470.483" stroke="#172C3A" stroke-width="1.33333" stroke-miterlimit="10" stroke-linecap="round" stroke-linejoin="round"/>
<path d="M69.9681 209.35L58.5881 222.575C58.5881 222.575 55.7374 237.811 54.3147 244.926C52.8907 252.042 50.0454 257.735 50.0454 257.735C50.0454 257.735 55.0268 269.119 57.8721 273.388C60.7188 277.658 62.1414 281.926 62.1414 281.926L69.9681 286.908V209.35C76.3721 205.08 69.9681 209.35 69.9681 209.35Z" fill="#172C3A"/>
<path d="M69.9681 209.35L58.5881 222.575C58.5881 222.575 55.7374 237.811 54.3147 244.926C52.8907 252.042 50.0454 257.735 50.0454 257.735C50.0454 257.735 55.0268 269.119 57.8721 273.388C60.7188 277.658 62.1414 281.926 62.1414 281.926L69.9681 286.908V209.35C69.9681 209.35 76.3721 205.08 69.9681 209.35V209.35Z" stroke="#172C3A" stroke-width="1.33333" stroke-miterlimit="10" stroke-linecap="round" stroke-linejoin="round"/>
<path d="M30.6665 259.528C30.6665 259.528 36.4158 258.706 42.1638 258.706" stroke="#172C3A" stroke-width="1.33333" stroke-miterlimit="10" stroke-linecap="round" stroke-linejoin="round"/>
<path d="M50.376 216.825C50.376 216.825 58.588 219.289 58.588 222.575" stroke="#172C3A" stroke-width="1.33333" stroke-miterlimit="10" stroke-linecap="round" stroke-linejoin="round"/>
<path d="M1 476.856C1 476.856 4.55599 443.079 4.55599 439.522C4.55599 435.968 4.55599 432.412 4.55599 428.856C4.55599 425.302 8.11198 422.635 8.11198 422.635C8.11198 422.635 42.7786 415.522 77.4453 427.079C112.112 438.635 104.112 457.302 104.112 457.302L102.333 483.968" fill="white"/>
<path d="M1 476.856C1 476.856 4.55599 443.079 4.55599 439.522C4.55599 435.968 4.55599 432.412 4.55599 428.856C4.55599 425.302 8.11198 422.635 8.11198 422.635C8.11198 422.635 42.7786 415.522 77.4453 427.079C112.112 438.635 104.112 457.302 104.112 457.302L102.333 483.968" stroke="#172C3A" stroke-width="1.33333" stroke-miterlimit="10" stroke-linecap="round" stroke-linejoin="round"/>
<path d="M493.356 348.811H79.1947C72.1347 348.811 66.4106 343.087 66.4106 336.025V89.7879C66.4106 82.7279 72.1347 77.0039 79.1947 77.0039H493.356C500.417 77.0039 506.14 82.7279 506.14 89.7879V336.025C506.14 343.087 500.417 348.811 493.356 348.811Z" fill="#172C3A"/>
<path d="M493.356 348.811H79.1947C72.1347 348.811 66.4106 343.087 66.4106 336.025V89.7879C66.4106 82.7279 72.1347 77.0039 79.1947 77.0039H493.356C500.417 77.0039 506.14 82.7279 506.14 89.7879V336.025C506.14 343.087 500.417 348.811 493.356 348.811Z" stroke="#172C3A" stroke-width="1.33333" stroke-miterlimit="10" stroke-linecap="round" stroke-linejoin="round"/>
<path d="M477.993 333.868H94.5561C87.4961 333.868 81.7734 328.144 81.7734 321.083V104.731C81.7734 97.6695 87.4961 91.9455 94.5561 91.9455H477.993C485.055 91.9455 490.779 97.6695 490.779 104.731V321.083C490.779 328.144 485.055 333.868 477.993 333.868Z" fill="white"/>
<path d="M477.993 333.868H94.5561C87.4961 333.868 81.7734 328.144 81.7734 321.083V104.731C81.7734 97.6695 87.4961 91.9455 94.5561 91.9455H477.993C485.055 91.9455 490.779 97.6695 490.779 104.731V321.083C490.779 328.144 485.055 333.868 477.993 333.868V333.868Z" stroke="#172C3A" stroke-width="1.33333" stroke-miterlimit="10" stroke-linecap="round" stroke-linejoin="round"/>
<path d="M460.556 171.629H351.373V101.752H460.556V171.629Z" fill="white"/>
<path d="M460.556 171.629H351.373V101.752H460.556V171.629Z" stroke="#172C3A" stroke-width="1.33333" stroke-miterlimit="10" stroke-linecap="round" stroke-linejoin="round"/>
<path d="M460.556 171.629H351.373V163.845H460.556V171.629Z" fill="#172C3A"/>
<path d="M460.556 171.629H351.373V163.845H460.556V171.629Z" stroke="#172C3A" stroke-width="1.33333" stroke-miterlimit="10" stroke-linecap="round" stroke-linejoin="round"/>
<path d="M460.556 168.872H351.373V166.601H460.556V168.872Z" fill="white"/>
<path d="M460.556 168.872H351.373V166.601H460.556V168.872Z" stroke="#172C3A" stroke-width="1.33333" stroke-miterlimit="10" stroke-linecap="round" stroke-linejoin="round"/>
<path d="M420.148 136.349C420.148 127.468 412.949 120.271 404.069 120.271C395.191 120.271 387.991 127.468 387.991 136.349C387.991 145.228 395.191 152.427 404.069 152.427C412.949 152.427 420.148 145.228 420.148 136.349Z" fill="#2552AC"/>
<path d="M413.387 136.697L399.397 128.621V144.773L413.387 136.697Z" fill="white"/>
<path d="M460.556 249.051H351.373V179.173H460.556V249.051Z" fill="white"/>
<path d="M460.556 249.051H351.373V179.173H460.556V249.051Z" stroke="#172C3A" stroke-width="1.33333" stroke-miterlimit="10" stroke-linecap="round" stroke-linejoin="round"/>
<path d="M460.556 249.051H351.373V241.267H460.556V249.051Z" fill="#172C3A"/>
<path d="M460.556 249.051H351.373V241.267H460.556V249.051Z" stroke="#172C3A" stroke-width="1.33333" stroke-miterlimit="10" stroke-linecap="round" stroke-linejoin="round"/>
<path d="M460.556 246.295H351.373V244.023H460.556V246.295Z" fill="white"/>
<path d="M460.556 246.295H351.373V244.023H460.556V246.295Z" stroke="#172C3A" stroke-width="1.33333" stroke-miterlimit="10" stroke-linecap="round" stroke-linejoin="round"/>
<path d="M420.148 213.77C420.148 204.89 412.949 197.69 404.069 197.69C395.191 197.69 387.991 204.89 387.991 213.77C387.991 222.649 395.191 229.849 404.069 229.849C412.949 229.849 420.148 222.649 420.148 213.77Z" fill="#2552AC"/>
<path d="M413.387 214.119L399.397 206.041V222.195L413.387 214.119Z" fill="white"/>
<path d="M460.556 326.471H351.373V256.595H460.556V326.471Z" fill="white"/>
<path d="M460.556 326.471H351.373V256.595H460.556V326.471Z" stroke="#172C3A" stroke-width="1.33333" stroke-miterlimit="10" stroke-linecap="round" stroke-linejoin="round"/>
<path d="M460.556 326.471H351.373V318.689H460.556V326.471Z" fill="#172C3A"/>
<path d="M460.556 326.471H351.373V318.689H460.556V326.471Z" stroke="#172C3A" stroke-width="1.33333" stroke-miterlimit="10" stroke-linecap="round" stroke-linejoin="round"/>
<path d="M460.556 323.715H351.373V321.444H460.556V323.715Z" fill="white"/>
<path d="M460.556 323.715H351.373V321.444H460.556V323.715Z" stroke="#172C3A" stroke-width="1.33333" stroke-miterlimit="10" stroke-linecap="round" stroke-linejoin="round"/>
<path d="M420.148 291.191C420.148 282.312 412.949 275.113 404.069 275.113C395.191 275.113 387.991 282.312 387.991 291.191C387.991 300.072 395.191 307.271 404.069 307.271C412.949 307.271 420.148 300.072 420.148 291.191Z" fill="#2552AC"/>
<path d="M413.387 291.54L399.397 283.464V299.616L413.387 291.54Z" fill="white"/>
<path fill-rule="evenodd" clip-rule="evenodd" d="M314.159 329.745H128.204C123.936 329.745 120.475 326.285 120.475 322.016V132.764C120.475 128.494 123.936 125.033 128.204 125.033H314.159C318.428 125.033 321.889 128.494 321.889 132.764V322.016C321.889 326.285 318.428 329.745 314.159 329.745Z" fill="#FAB30B"/>
<path d="M47.2227 309.745C47.2227 309.745 60.0067 281.925 61.4293 271.252C62.8533 260.58 60.0067 235.676 63.564 225.715C67.1227 215.753 64.988 202.945 73.5267 197.965C82.064 192.984 93.4493 194.408 95.584 214.331C97.7186 234.253 95.584 265.561 96.2947 276.235C97.0067 286.908 115.507 302.561 116.219 325.329C116.929 348.099 109.103 371.579 106.968 381.541C104.833 391.503 96.2947 414.983 96.2947 414.983" fill="white"/>
<path d="M47.2227 309.745C47.2227 309.745 60.0067 281.925 61.4293 271.252C62.8533 260.58 60.0067 235.676 63.564 225.715C67.1227 215.753 64.988 202.945 73.5267 197.965C82.064 192.984 93.4493 194.408 95.584 214.331C97.7186 234.253 95.584 265.561 96.2947 276.235C97.0067 286.908 115.507 302.561 116.219 325.329C116.929 348.099 109.103 371.579 106.968 381.541C104.833 391.503 96.2947 414.983 96.2947 414.983" stroke="#172C3A" stroke-width="1.33333" stroke-miterlimit="10" stroke-linecap="round" stroke-linejoin="round"/>
<path d="M67.0827 220.985C67.0827 220.985 72.8147 219.311 79.9293 220.735C87.0453 222.157 91.3146 223.58 91.3146 223.58C91.3146 223.58 92.0266 216.465 91.3146 209.349C91.3146 209.349 92.2587 201.223 87.332 197.937C82.404 194.652 72.5493 195.473 69.264 202.864C65.9787 210.255 67.0827 220.985 67.0827 220.985V220.985Z" stroke="#172C3A" stroke-width="1.33333" stroke-miterlimit="10" stroke-linecap="round" stroke-linejoin="round"/>
<path d="M84.8666 234.072C84.8666 234.072 68.4426 229.143 64.3359 235.713" stroke="#172C3A" stroke-width="1.33333" stroke-miterlimit="10" stroke-linecap="round" stroke-linejoin="round"/>
<path d="M68.4424 238.177C68.4424 238.177 73.3704 239.819 84.0464 238.999" stroke="#172C3A" stroke-width="1.33333" stroke-miterlimit="10" stroke-linecap="round" stroke-linejoin="round"/>
<path d="M496.89 118.272C496.89 118.272 478.39 123.966 479.812 128.946C481.236 133.927 515.389 176.619 521.082 175.196C526.774 173.772 533.178 155.272 533.178 142.466C533.178 129.658 496.89 118.272 496.89 118.272Z" fill="#172C3A"/>
<path d="M496.89 118.272C496.89 118.272 478.39 123.966 479.812 128.946C481.236 133.927 515.389 176.619 521.082 175.196C526.774 173.772 533.178 155.272 533.178 142.466C533.178 129.658 496.89 118.272 496.89 118.272V118.272Z" stroke="#172C3A" stroke-width="1.33333" stroke-miterlimit="10" stroke-linecap="round" stroke-linejoin="round"/>
<path d="M648.112 243.968L630.659 222.868C630.659 222.868 607.89 169.502 601.486 158.83C595.083 148.157 580.852 117.561 575.871 116.137C570.89 114.716 563.775 114.004 561.64 112.58C559.506 111.157 550.967 108.31 539.583 107.6C528.198 106.888 504.718 101.908 494.755 99.0612C484.795 96.2158 484.083 99.0611 471.986 103.33C459.891 107.6 423.602 120.408 420.755 122.542C417.91 124.676 421.468 131.08 430.718 134.637C439.968 138.196 444.236 135.349 454.91 133.927C465.583 132.504 481.948 129.657 484.083 129.657C486.218 129.657 501.871 131.792 504.718 133.216C507.563 134.637 514.679 146.022 514.679 151.714C514.679 157.408 513.255 163.81 513.255 163.81L512.966 213.218C512.966 213.218 535.495 238.637 551.094 247.302C566.692 255.968 574.202 256.546 574.202 256.546L598.466 279.077" fill="white"/>
<path d="M648.112 243.968L630.659 222.868C630.659 222.868 607.89 169.502 601.486 158.83C595.083 148.157 580.852 117.561 575.871 116.137C570.89 114.716 563.775 114.004 561.64 112.58C559.506 111.157 550.967 108.31 539.583 107.6C528.198 106.888 504.718 101.908 494.755 99.0612C484.795 96.2158 484.083 99.0611 471.986 103.33C459.891 107.6 423.602 120.408 420.755 122.542C417.91 124.676 421.468 131.08 430.718 134.637C439.968 138.196 444.236 135.349 454.91 133.927C465.583 132.504 481.948 129.657 484.083 129.657C486.218 129.657 501.871 131.792 504.718 133.216C507.563 134.637 514.679 146.022 514.679 151.714C514.679 157.408 513.255 163.81 513.255 163.81L512.966 213.218C512.966 213.218 535.495 238.637 551.094 247.302C566.692 255.968 574.202 256.546 574.202 256.546L598.466 279.077" stroke="#172C3A" stroke-width="1.33333" stroke-miterlimit="10" stroke-linecap="round" stroke-linejoin="round"/>
<path d="M561.64 112.58C561.64 112.58 568.755 119.696 573.025 128.945L561.64 112.58Z" fill="white"/>
<path d="M561.64 112.58C561.64 112.58 568.755 119.696 573.025 128.945" stroke="#172C3A" stroke-width="1.33333" stroke-miterlimit="10" stroke-linecap="round" stroke-linejoin="round"/>
<path d="M628.556 324.412L574.448 263.425C574.448 263.425 549.544 252.752 533.179 242.08C516.812 231.408 496.891 197.253 491.909 189.427C486.928 181.6 476.255 165.945 467.717 160.253C459.179 154.561 443.525 136.772 439.968 129.657C436.409 122.543 442.813 113.292 450.64 112.58C458.468 111.869 491.197 127.523 496.891 136.061C502.583 144.6 518.948 162.388 518.948 162.388" fill="white"/>
<path d="M628.556 324.412L574.448 263.425C574.448 263.425 549.544 252.752 533.179 242.08C516.812 231.408 496.891 197.253 491.909 189.427C486.928 181.6 476.255 165.945 467.717 160.253C459.179 154.561 443.525 136.772 439.968 129.657C436.409 122.543 442.813 113.292 450.64 112.58C458.468 111.869 491.197 127.523 496.891 136.061C502.583 144.6 518.948 162.388 518.948 162.388" stroke="#172C3A" stroke-width="1.33333" stroke-miterlimit="10" stroke-linecap="round" stroke-linejoin="round"/>
<path d="M479.101 137.484C479.101 137.484 470.563 146.023 469.852 150.292" stroke="#172C3A" stroke-width="1.33333" stroke-miterlimit="10" stroke-linecap="round" stroke-linejoin="round"/>
<path d="M485.505 138.196C485.505 138.196 479.101 148.158 474.832 151.715" stroke="#172C3A" stroke-width="1.33333" stroke-miterlimit="10" stroke-linecap="round" stroke-linejoin="round"/>
<path d="M471.986 123.965C462.736 130.369 456.332 142.465 456.332 142.465C456.332 142.465 441.121 136.931 439.968 129.657C438.813 122.384 441.115 115.095 450.64 112.58C460.165 110.067 471.986 123.965 471.986 123.965V123.965Z" stroke="#172C3A" stroke-width="1.33333" stroke-miterlimit="10" stroke-linecap="round" stroke-linejoin="round"/>
<path d="M647.223 367.079C644.556 362.635 585 292.856 582.333 283.968C579.667 275.079 590.333 254.635 607.224 235.967C616.144 226.108 638.364 210.051 650.823 223.144C655.963 228.547 660.309 235.085 665.889 240.412" fill="white"/>
<path d="M647.223 367.079C644.556 362.635 585 292.856 582.333 283.968C579.667 275.079 590.333 254.635 607.224 235.967C616.144 226.108 638.364 210.051 650.823 223.144C655.963 228.547 660.309 235.085 665.889 240.412" stroke="#172C3A" stroke-width="1.33333" stroke-miterlimit="10" stroke-linecap="round" stroke-linejoin="round"/>
<path d="M271.587 333.564L274.015 295.533C274.015 295.533 275.648 302.072 276.875 304.523C278.1 306.973 303.026 295.533 303.026 295.533C303.026 295.533 296.487 251.408 292.402 235.472C288.315 219.537 287.09 198.699 283.414 197.473C279.735 196.248 233.566 174.593 232.34 174.593C231.114 174.593 206.191 177.045 206.191 177.045L165.74 201.56L171.796 333.564H271.587Z" fill="white"/>
<path d="M271.587 333.564L274.015 295.533C274.015 295.533 275.648 302.072 276.875 304.523C278.1 306.973 303.026 295.533 303.026 295.533C303.026 295.533 296.487 251.408 292.402 235.472C288.315 219.537 287.09 198.699 283.414 197.473C279.735 196.248 233.566 174.593 232.34 174.593C231.114 174.593 206.191 177.045 206.191 177.045L165.74 201.56L171.796 333.564H271.587Z" stroke="#172C3A" stroke-width="1.33333" stroke-miterlimit="10" stroke-linecap="round" stroke-linejoin="round"/>
<path d="M239.533 231.424C239.484 232.767 239.411 234.079 239.305 235.347" stroke="#172C3A" stroke-width="1.33333" stroke-miterlimit="10" stroke-linecap="round" stroke-linejoin="round"/>
<path d="M237.083 196.236C237.083 196.236 239.41 211.368 239.592 225.623" stroke="#172C3A" stroke-width="1.33333" stroke-miterlimit="10" stroke-linecap="round" stroke-linejoin="round"/>
<path d="M269.407 228.036L269.527 221.569" stroke="#172C3A" stroke-width="1.33333" stroke-miterlimit="10" stroke-linecap="round" stroke-linejoin="round"/>
<path d="M268.193 293.125L269.316 232.849" stroke="#172C3A" stroke-width="1.33333" stroke-miterlimit="10" stroke-linecap="round" stroke-linejoin="round"/>
<path d="M308.033 333.564L305.083 308.68L277.083 314.013L286.648 333.564H308.033Z" fill="white"/>
<path d="M308.033 333.564L305.083 308.68L277.083 314.013L286.648 333.564H308.033Z" stroke="#172C3A" stroke-width="1.33333" stroke-miterlimit="10" stroke-linecap="round" stroke-linejoin="round"/>
<path d="M272.638 302.459C272.638 302.459 278.86 299.792 286.86 294.903C294.86 290.013 302.416 288.68 304.638 292.68C306.86 296.68 311.749 307.792 309.972 309.569C308.193 311.347 281.972 319.792 279.305 319.792C276.638 319.792 271.761 310.837 271.761 310.837C271.761 310.837 270.86 306.903 272.638 302.459Z" fill="white"/>
<path d="M272.638 302.459C272.638 302.459 278.86 299.792 286.86 294.903C294.86 290.013 302.416 288.68 304.638 292.68C306.86 296.68 311.749 307.792 309.972 309.569C308.193 311.347 281.972 319.792 279.305 319.792C276.638 319.792 271.761 310.837 271.761 310.837C271.761 310.837 270.86 306.903 272.638 302.459Z" stroke="#172C3A" stroke-width="1.33333" stroke-miterlimit="10" stroke-linecap="round" stroke-linejoin="round"/>
<path d="M211.092 165.196C211.092 165.196 206.48 168.9 204.965 171.325C202.921 174.593 201.695 180.313 201.695 180.313L219.264 204.828L230.297 187.668L234.383 185.216L251.952 197.065C251.952 197.065 245.823 175.819 239.286 169.281C232.748 162.744 214.771 163.561 211.092 165.196Z" fill="white"/>
<path d="M211.092 165.196C211.092 165.196 206.48 168.9 204.965 171.325C202.921 174.593 201.695 180.313 201.695 180.313L219.264 204.828L230.297 187.668L234.383 185.216L251.952 197.065C251.952 197.065 245.823 175.819 239.286 169.281C232.748 162.744 214.771 163.561 211.092 165.196V165.196Z" stroke="#172C3A" stroke-width="1.33333" stroke-miterlimit="10" stroke-linecap="round" stroke-linejoin="round"/>
<path d="M232.735 80.1508C232.735 80.1508 241.992 87.5575 242.917 91.7229C243.844 95.8895 241.292 105.007 241.292 105.007L229.031 81.0775L232.735 80.1508Z" fill="#172C3A"/>
<path d="M232.735 80.1508C232.735 80.1508 241.992 87.5575 242.917 91.7229C243.844 95.8895 241.292 105.007 241.292 105.007L229.031 81.0775L232.735 80.1508Z" stroke="#172C3A" stroke-width="1.33333" stroke-miterlimit="10" stroke-linecap="round" stroke-linejoin="round"/>
<path d="M229.888 76.5331C229.888 76.5331 246.64 112.897 249.09 125.154C251.542 137.412 250.316 148.853 245.822 157.433C241.328 166.013 236.425 164.788 236.425 164.788V192.572C236.425 192.572 214.77 175.41 213.544 173.368C212.318 171.325 210.276 167.648 210.276 167.648C210.276 167.648 207.824 149.669 200.061 144.357C200.061 144.357 189.846 145.993 187.396 136.594C184.944 127.197 186.986 123.929 193.524 123.112C193.524 123.112 188.212 109.629 186.986 100.64C185.76 91.6504 200.878 88.7904 209.866 83.0704C218.857 77.3504 229.888 76.5331 229.888 76.5331Z" fill="white"/>
<path d="M229.888 76.5331C229.888 76.5331 246.64 112.897 249.09 125.154C251.542 137.412 250.316 148.853 245.822 157.433C241.328 166.013 236.425 164.788 236.425 164.788V192.572C236.425 192.572 214.77 175.41 213.544 173.368C212.318 171.325 210.276 167.648 210.276 167.648C210.276 167.648 207.824 149.669 200.061 144.357C200.061 144.357 189.846 145.993 187.396 136.594C184.944 127.197 186.986 123.929 193.524 123.112C193.524 123.112 188.212 109.629 186.986 100.64C185.76 91.6504 200.878 88.7904 209.866 83.0704C218.857 77.3504 229.888 76.5331 229.888 76.5331Z" stroke="#172C3A" stroke-width="1.33333" stroke-miterlimit="10" stroke-linecap="round" stroke-linejoin="round"/>
<path d="M236.425 164.788L228.532 161.72L235.96 175.463L236.425 164.788Z" fill="#172C3A"/>
<path d="M236.425 164.788L228.532 161.72L235.96 175.463L236.425 164.788Z" stroke="#172C3A" stroke-width="1.33333" stroke-miterlimit="10" stroke-linecap="round" stroke-linejoin="round"/>
<path d="M192.707 125.972C192.707 125.972 187.396 123.929 181.676 116.575C175.955 109.22 174.32 103.5 182.084 91.2428C189.847 78.9855 217.631 67.5455 225.393 68.7708C233.156 69.9961 238.06 79.8015 228.663 85.9308C219.264 92.0601 207.824 94.5108 207.824 94.5108C207.824 94.5108 212.319 90.8335 207.416 90.0175C202.513 89.2001 192.707 94.1028 193.524 98.1895C194.341 102.273 200.471 101.049 200.061 107.585C199.652 114.123 193.932 121.069 195.975 123.521C198.019 125.972 202.921 128.015 198.836 129.241C194.751 130.467 192.707 125.972 192.707 125.972Z" fill="#172C3A"/>
<path d="M192.707 125.972C192.707 125.972 187.396 123.929 181.676 116.575C175.955 109.22 174.32 103.5 182.084 91.2428C189.847 78.9855 217.631 67.5455 225.393 68.7708C233.156 69.9961 238.06 79.8015 228.663 85.9308C219.264 92.0601 207.824 94.5108 207.824 94.5108C207.824 94.5108 212.319 90.8335 207.416 90.0175C202.513 89.2001 192.707 94.1028 193.524 98.1895C194.341 102.273 200.471 101.049 200.061 107.585C199.652 114.123 193.932 121.069 195.975 123.521C198.019 125.972 202.921 128.015 198.836 129.241C194.751 130.467 192.707 125.972 192.707 125.972V125.972Z" stroke="#172C3A" stroke-width="1.33333" stroke-miterlimit="10" stroke-linecap="round" stroke-linejoin="round"/>
<path d="M221.307 132.509L215.179 137.412" stroke="#172C3A" stroke-width="1.33333" stroke-miterlimit="10" stroke-linecap="round" stroke-linejoin="round"/>
<path d="M218.448 135.777C218.448 135.777 226.21 143.133 239.694 137.004" stroke="#172C3A" stroke-width="1.33333" stroke-miterlimit="10" stroke-linecap="round" stroke-linejoin="round"/>
<path d="M221.307 138.229C221.307 138.229 223.759 143.541 230.297 145.176C236.833 146.809 233.565 139.455 233.565 139.455C233.565 139.455 224.577 139.455 221.307 138.229Z" fill="#172C3A"/>
<path d="M221.307 138.229C221.307 138.229 223.759 143.541 230.297 145.176C236.833 146.809 233.565 139.455 233.565 139.455C233.565 139.455 224.577 139.455 221.307 138.229V138.229Z" stroke="#172C3A" stroke-width="1.33333" stroke-miterlimit="10" stroke-linecap="round" stroke-linejoin="round"/>
<path d="M214.28 113.611C214.916 115.54 214.736 117.333 213.879 117.616C213.023 117.899 211.811 116.564 211.176 114.635C210.539 112.707 210.719 110.913 211.576 110.631C212.433 110.348 213.643 111.683 214.28 113.611Z" fill="#172C3A"/>
<path d="M235.527 107.483C236.161 109.411 235.981 111.204 235.125 111.487C234.268 111.769 233.057 110.435 232.421 108.507C231.785 106.577 231.965 104.784 232.823 104.501C233.68 104.219 234.889 105.553 235.527 107.483Z" fill="#172C3A"/>
<path d="M224.724 116.661L208.052 122.173C206.624 122.646 205.083 121.87 204.609 120.441L202.195 113.138C201.721 111.709 202.496 110.167 203.925 109.695L220.597 104.181C222.028 103.709 223.569 104.484 224.041 105.913L226.457 113.217C226.929 114.647 226.153 116.188 224.724 116.661V116.661Z" stroke="#172C3A" stroke-width="1.33333" stroke-miterlimit="10" stroke-linecap="round" stroke-linejoin="round"/>
<path d="M223.669 104.56L229.609 102.58" stroke="#172C3A" stroke-width="1.33333" stroke-miterlimit="10" stroke-linecap="round" stroke-linejoin="round"/>
<path d="M202.195 113.139L191.536 123.663" stroke="#172C3A" stroke-width="1.33333" stroke-miterlimit="10" stroke-linecap="round" stroke-linejoin="round"/>
<path d="M249.901 96.3935L241.982 103.076" stroke="#172C3A" stroke-width="1.33333" stroke-miterlimit="10" stroke-linecap="round" stroke-linejoin="round"/>
<path d="M251.692 108.49L235.02 114.003C233.589 114.475 232.048 113.699 231.576 112.271L229.16 104.967C228.688 103.538 229.464 101.996 230.892 101.523L247.564 96.0096C248.993 95.5376 250.534 96.3136 251.008 97.7429L253.422 105.046C253.896 106.475 253.12 108.016 251.692 108.49Z" stroke="#172C3A" stroke-width="1.33333" stroke-miterlimit="10" stroke-linecap="round" stroke-linejoin="round"/>
<path d="M205.372 106.77C205.372 106.77 210.276 100.64 217.631 101.458" stroke="#172C3A" stroke-width="2.66667" stroke-miterlimit="10" stroke-linecap="round" stroke-linejoin="round"/>
<path d="M227.845 98.1895C227.845 98.1895 231.113 94.9201 237.243 96.5535" stroke="#172C3A" stroke-width="2.66667" stroke-miterlimit="10" stroke-linecap="round" stroke-linejoin="round"/>
<path d="M229.071 105.952C229.071 105.952 241.328 129.649 240.103 131.284C238.876 132.917 230.704 131.284 230.704 131.284" fill="white"/>
<path d="M229.071 105.952C229.071 105.952 241.328 129.649 240.103 131.284C238.876 132.917 230.704 131.284 230.704 131.284" stroke="#172C3A" stroke-width="1.33333" stroke-miterlimit="10" stroke-linecap="round" stroke-linejoin="round"/>
<path d="M170.643 199.108C170.643 199.108 163.697 199.108 161.655 205.237C159.612 211.365 140.408 281.233 142.451 283.276C144.495 285.319 170.235 286.953 173.095 286.136C175.955 285.319 188.212 238.332 188.212 238.332" fill="white"/>
<path d="M170.643 199.108C170.643 199.108 163.697 199.108 161.655 205.237C159.612 211.365 140.408 281.233 142.451 283.276C144.495 285.319 170.235 286.953 173.095 286.136C175.955 285.319 188.212 238.332 188.212 238.332" stroke="#172C3A" stroke-width="1.33333" stroke-miterlimit="10" stroke-linecap="round" stroke-linejoin="round"/>
<path d="M180.859 284.503C180.859 284.503 182.492 276.331 175.547 273.062C168.6 269.794 157.16 270.202 150.215 275.514C143.268 280.826 142.043 279.599 140.408 289.814C138.775 300.028 145.72 306.566 151.44 307.792C157.16 309.018 162.063 310.243 169.009 303.298C175.955 296.352 180.859 284.503 180.859 284.503Z" fill="white"/>
<path d="M180.859 284.503C180.859 284.503 182.492 276.331 175.547 273.062C168.6 269.794 157.16 270.202 150.215 275.514C143.268 280.826 142.043 279.599 140.408 289.814C138.775 300.028 145.72 306.566 151.44 307.792C157.16 309.018 162.063 310.243 169.009 303.298C175.955 296.352 180.859 284.503 180.859 284.503V284.503Z" stroke="#172C3A" stroke-width="1.33333" stroke-miterlimit="10" stroke-linecap="round" stroke-linejoin="round"/>
<path d="M223.899 241.479C223.899 241.479 221.037 303.992 210.416 327.281C210.416 327.281 220.629 330.549 237.381 328.915C254.133 327.281 269.659 318.292 269.659 318.292C269.659 318.292 275.379 283.971 278.24 267.219C281.1 250.467 282.735 241.071 282.735 241.071C282.735 241.071 279.057 243.929 258.219 245.156C237.381 246.381 223.899 241.479 223.899 241.479Z" fill="white"/>
<path d="M223.899 241.479C223.899 241.479 221.037 303.992 210.416 327.281C210.416 327.281 220.629 330.549 237.381 328.915C254.133 327.281 269.659 318.292 269.659 318.292C269.659 318.292 275.379 283.971 278.24 267.219C281.1 250.467 282.735 241.071 282.735 241.071C282.735 241.071 279.057 243.929 258.219 245.156C237.381 246.381 223.899 241.479 223.899 241.479Z" stroke="#172C3A" stroke-width="1.33333" stroke-miterlimit="10" stroke-linecap="round" stroke-linejoin="round"/>
<path d="M197.201 292.674C197.201 292.674 173.504 277.966 170.235 277.966C166.967 277.966 157.16 281.234 153.075 290.631C148.988 300.028 149.397 304.931 154.709 306.566C160.02 308.2 194.341 311.468 198.427 311.468C202.513 311.468 212.319 313.512 218.039 313.512C223.759 313.512 238.876 311.878 240.919 308.608C242.963 305.34 226.211 306.566 224.984 306.158C223.759 305.748 240.296 302.563 242.553 302.072C244.86 301.57 247.865 298.395 243.371 297.168C243.371 297.168 251.135 293.491 246.232 290.223L223.415 286.207L230.471 284.722C230.471 284.722 246.44 288.992 246.232 284.094C246.144 282.052 233.156 277.966 229.071 277.966C224.984 277.966 203.329 292.674 203.329 292.674H197.201Z" fill="white"/>
<path d="M197.201 292.674C197.201 292.674 173.504 277.966 170.235 277.966C166.967 277.966 157.16 281.234 153.075 290.631C148.988 300.028 149.397 304.931 154.709 306.566C160.02 308.2 194.341 311.468 198.427 311.468C202.513 311.468 212.319 313.512 218.039 313.512C223.759 313.512 238.876 311.878 240.919 308.608C242.963 305.34 226.211 306.566 224.984 306.158C223.759 305.748 240.296 302.563 242.553 302.072C244.86 301.57 247.865 298.395 243.371 297.168C243.371 297.168 251.135 293.491 246.232 290.223L223.415 286.207L230.471 284.722C230.471 284.722 246.44 288.992 246.232 284.094C246.144 282.052 233.156 277.966 229.071 277.966C224.984 277.966 203.329 292.674 203.329 292.674H197.201Z" stroke="#172C3A" stroke-width="1.33333" stroke-miterlimit="10" stroke-linecap="round" stroke-linejoin="round"/>
<path d="M243.371 297.168L222.533 295.533" stroke="#172C3A" stroke-width="1.33333" stroke-miterlimit="10" stroke-linecap="round" stroke-linejoin="round"/>
<path d="M268.949 77.004C273.755 83.0707 280.699 87.8147 288.889 90.4227L272.812 118.748L302.637 92.6521C302.931 92.6574 303.221 92.6707 303.517 92.6707C317.935 92.6707 330.64 86.452 338.113 77.004H268.949Z" fill="#172C3A"/>
<path d="M268.949 77.004C273.755 83.0707 280.699 87.8147 288.889 90.4227L272.812 118.748L302.637 92.652C302.931 92.6574 303.221 92.6707 303.517 92.6707C317.935 92.6707 330.64 86.452 338.113 77.004H268.949Z" stroke="#172C3A" stroke-width="1.33333" stroke-miterlimit="10" stroke-linecap="round" stroke-linejoin="round"/>
<path d="M302.953 19.7561C279.956 19.7561 261.312 35.5748 261.312 55.0881C261.312 70.2321 272.545 83.1454 288.325 88.1708L272.249 116.496L302.075 90.4001C302.367 90.4054 302.659 90.4188 302.953 90.4188C325.951 90.4188 344.593 74.6015 344.593 55.0881C344.593 35.5748 325.951 19.7561 302.953 19.7561Z" fill="#FAB30B"/>
<path d="M288.232 55.8572C288.232 53.3012 286.16 51.2305 283.605 51.2305C281.051 51.2305 278.979 53.3012 278.979 55.8572C278.979 58.4119 281.051 60.4839 283.605 60.4839C286.16 60.4839 288.232 58.4119 288.232 55.8572Z" fill="#172C3A"/>
<path d="M308.843 55.8572C308.843 53.3012 306.771 51.2305 304.215 51.2305C301.66 51.2305 299.588 53.3012 299.588 55.8572C299.588 58.4119 301.66 60.4839 304.215 60.4839C306.771 60.4839 308.843 58.4119 308.843 55.8572Z" fill="#172C3A"/>
<path d="M329.452 55.8572C329.452 53.3012 327.38 51.2305 324.825 51.2305C322.269 51.2305 320.197 53.3012 320.197 55.8572C320.197 58.4119 322.269 60.4839 324.825 60.4839C327.38 60.4839 329.452 58.4119 329.452 55.8572Z" fill="#172C3A"/>
<path d="M452.333 31.6584C452.333 27.2251 448.739 23.6303 444.305 23.6303C439.872 23.6303 436.277 27.2251 436.277 31.6584C436.277 36.0933 439.872 39.6865 444.305 39.6865C448.739 39.6865 452.333 36.0933 452.333 31.6584Z" fill="#2552AC"/>
<path d="M444.305 11.3774C436.032 11.3774 428.909 16.3654 425.759 23.4852L431.132 28.2815C432.64 22.4066 437.965 18.044 444.305 18.044C451.107 18.044 456.743 23.0638 457.745 29.5894L463.197 24.3388C460.253 16.767 452.905 11.3774 444.305 11.3774Z" fill="#2552AC"/>
<path d="M422.108 20.2244C426.267 12.1843 434.647 6.66706 444.305 6.66706C454.216 6.66706 462.771 12.4801 466.809 20.8613L471.823 16.0337C466.369 6.46812 456.081 0.000120163 444.305 0.000120163C432.68 0.000120163 422.505 6.30146 417 15.6639L422.108 20.2244Z" fill="#2552AC"/>
<path fill-rule="evenodd" clip-rule="evenodd" d="M233.941 399.165V432.321C233.941 435.81 231.112 438.641 227.623 438.641H187.32C183.829 438.641 181 435.81 181 432.321V392.02C181 388.529 183.829 385.698 187.32 385.698H223.356" fill="#2552AC"/>
<path fill-rule="evenodd" clip-rule="evenodd" d="M240.388 390.349C240.388 385.185 236.201 381 231.039 381C225.875 381 221.689 385.185 221.689 390.349C221.689 395.513 225.875 399.697 231.039 399.697C236.201 399.697 240.388 395.513 240.388 390.349Z" fill="#FAB30B"/>
<path fill-rule="evenodd" clip-rule="evenodd" d="M207.753 394.919C198.301 394.919 190.639 401.464 190.639 409.536C190.639 414.363 193.388 418.629 197.609 421.292L196.836 428.084L203.828 423.753C205.091 424.008 206.401 424.156 207.753 424.156C217.205 424.156 224.868 417.611 224.868 409.536C224.868 401.464 217.205 394.919 207.753 394.919Z" fill="white"/>
</svg>
