<svg width="17" height="20" viewBox="0 0 17 20" fill="none" xmlns="http://www.w3.org/2000/svg">
<path d="M3.81836 5.45459C3.81836 2.69317 6.05694 0.45459 8.81836 0.45459C11.5798 0.45459 13.8184 2.69317 13.8184 5.45459C13.8184 8.21601 11.5798 10.4546 8.81836 10.4546C6.05694 10.4546 3.81836 8.21601 3.81836 5.45459ZM8.81836 8.45459C10.4752 8.45459 11.8184 7.11144 11.8184 5.45459C11.8184 3.79774 10.4752 2.45459 8.81836 2.45459C7.16151 2.45459 5.81836 3.79774 5.81836 5.45459C5.81836 7.11144 7.16151 8.45459 8.81836 8.45459Z" fill="#2552AC"/>
<path d="M3.16151 13.7977C1.66121 15.298 0.818359 17.3329 0.818359 19.4546H2.81836C2.81836 17.8633 3.4505 16.3372 4.57572 15.2119C5.70094 14.0867 7.22706 13.4546 8.81836 13.4546C10.4097 13.4546 11.9358 14.0867 13.061 15.2119C14.1862 16.3372 14.8184 17.8633 14.8184 19.4546H16.8184C16.8184 17.3329 15.9755 15.298 14.4752 13.7977C12.9749 12.2974 10.9401 11.4546 8.81836 11.4546C6.69663 11.4546 4.6618 12.2974 3.16151 13.7977Z" fill="#2552AC"/>
</svg>
