<svg width="18" height="17" viewBox="0 0 18 17" fill="none" xmlns="http://www.w3.org/2000/svg">
<path d="M16.0847 16.8039L10.3697 11.0879C7.82736 12.8954 4.32413 12.4533 2.31057 10.0708C0.297004 7.68843 0.444854 4.16051 2.6507 1.95492C4.85596 -0.251634 8.38422 -0.400125 10.7671 1.61333C13.1499 3.62679 13.5923 7.13037 11.7847 9.67292L17.4997 15.3889L16.0857 16.8029L16.0847 16.8039ZM6.8927 2.1969C4.9964 2.19648 3.36039 3.52759 2.97517 5.38435C2.58995 7.24111 3.56141 9.11319 5.30137 9.86716C7.04134 10.6211 9.07159 10.0497 10.1629 8.49897C11.2543 6.94819 11.1068 4.84423 9.8097 3.46092L10.4147 4.06092L9.7327 3.38092L9.7207 3.36892C8.97248 2.6161 7.95409 2.19405 6.8927 2.1969Z" fill="#2552AC"/>
</svg>
